<?xml version="1.0" encoding="utf-8"?>
<!-- Generator: Adobe Illustrator 19.0.0, SVG Export Plug-In . SVG Version: 6.00 Build 0)  -->
<svg version="1.1" id="Layer_1" xmlns="http://www.w3.org/2000/svg" xmlns:xlink="http://www.w3.org/1999/xlink" x="0px" y="0px"
	 viewBox="-98 199 763 150" style="enable-background:new -98 199 763 150;" xml:space="preserve">
<style type="text/css">
	.st0{fill:#FFFFFF;}
</style>
<path class="st0" d="M-98,199v150h763V199H-98z"/>
<path d="M9.2,251.9c7,0,13.5,2.5,18.5,6.8l6.8-8.2c-6.8-5.8-15.7-9.2-25.3-9.2c-21.8,0-39.5,17.7-39.5,39.5
	c0,21.7,17.7,39.5,39.5,39.5c9.6,0,18.5-3.5,25.3-9.3l-6.8-8.1c-5,4.2-11.5,6.7-18.5,6.7c-16,0-28.9-12.9-28.9-28.8
	C-19.7,264.8-6.8,251.9,9.2,251.9z"/>
<path d="M227.8,307.3h-15.9v-53.1h15.9c14.7,0,26.6,11.9,26.6,26.6C254.4,295.4,242.5,307.3,227.8,307.3 M227.8,243.5h-21.2
	c-3,0-5.4,2.4-5.4,5.4v63.8c0,2.9,2.4,5.3,5.4,5.3h21.2c20.6,0,37.3-16.7,37.3-37.2C265.1,260.2,248.4,243.5,227.8,243.5
	L227.8,243.5z"/>
<path d="M293.9,248.9v63.8c0,2.9,2.3,5.3,5.3,5.3h44.3v-10.7h-39v-21.2h24.8v-10.7h-24.8v-21.2h39v-10.7h-44.3
	C296.2,243.5,293.9,245.9,293.9,248.9L293.9,248.9z"/>
<path d="M454.8,248.9v63.8c0,2.9,2.4,5.3,5.3,5.3h44.4v-10.7h-39v-21.2h24.8v-10.7h-24.8v-21.2h39v-10.7h-44.4
	C457.2,243.5,454.8,245.9,454.8,248.9L454.8,248.9z"/>
<path d="M404.2,275.4h-17.7v-21.2h17.7c5.9,0,10.7,4.7,10.7,10.6S410.1,275.4,404.2,275.4 M404.2,243.5h-23c-3,0-5.3,2.4-5.3,5.4
	V318h10.6v-31.9h17.7c11.7,0,21.3-9.6,21.3-21.3C425.5,253.1,415.9,243.5,404.2,243.5L404.2,243.5z"/>
<path d="M587.6,243.5V298l-43.8-52.6c-1.4-1.7-3.8-2.3-5.9-1.5c-2.1,0.7-3.5,2.7-3.5,5V318h10.7v-54.5l43.7,52.6
	c1.1,1.2,2.6,1.9,4.1,1.9c0.6,0,1.2-0.1,1.8-0.3c2.1-0.8,3.5-2.8,3.5-5v-69.2H587.6z"/>
<path d="M140.4,274.9l-21.1-14.1V238l38.2,25.5L140.4,274.9z M149.2,280.8l12.2-8.2v16.3L149.2,280.8z M119.3,300.8l21.1-14.2
	l17.1,11.4l-38.2,25.5V300.8z M88.4,286.6l21.1,14.2v22.7L71.3,298L88.4,286.6z M79.6,280.8l-12.2,8.1v-16.3L79.6,280.8z
	 M109.5,260.8l-21.1,14.1l-17.1-11.4l38.2-25.5L109.5,260.8z M114.4,292.3l-17.2-11.5l17.2-11.6l17.2,11.6L114.4,292.3z M171,262.6
	c0-0.1,0-0.2,0-0.4c-0.1-0.1-0.1-0.1-0.1-0.2c-0.1-0.1-0.1-0.3-0.2-0.4c0-0.1,0-0.1-0.1-0.2c0-0.1-0.1-0.2-0.1-0.3
	c-0.1-0.1-0.1-0.2-0.2-0.3c0-0.1-0.1-0.2-0.2-0.3c0,0-0.1-0.1-0.1-0.2c-0.1-0.1-0.2-0.1-0.3-0.2c0-0.1-0.1-0.2-0.2-0.2
	c-0.1-0.1-0.2-0.2-0.3-0.3c0,0-0.1-0.1-0.2-0.1c0,0,0-0.1-0.1-0.1l-51.8-34.5c-1.6-1.1-3.8-1.1-5.4,0l-51.9,34.5v0.1
	c-0.1,0-0.2,0.1-0.3,0.1c-0.1,0.1-0.1,0.2-0.2,0.3c-0.1,0-0.2,0.1-0.2,0.2c-0.1,0.1-0.2,0.1-0.3,0.2c0,0.1-0.1,0.2-0.1,0.2
	c-0.1,0.1-0.2,0.2-0.2,0.3c-0.1,0.1-0.1,0.2-0.2,0.3c0,0.1-0.1,0.2-0.1,0.3c-0.1,0.1-0.1,0.1-0.2,0.2c0,0.1,0,0.3-0.1,0.4
	c0,0.1,0,0.1-0.1,0.2c0,0.2,0,0.3,0,0.4c-0.1,0.1-0.1,0.2-0.1,0.2c0,0.3,0,0.5,0,0.7V298c0,0.3,0,0.5,0,0.7c0,0.1,0,0.1,0.1,0.2
	c0,0.1,0,0.3,0,0.4c0.1,0.1,0.1,0.2,0.1,0.2c0.1,0.2,0.1,0.3,0.1,0.4c0.1,0.1,0.1,0.2,0.2,0.2c0,0.1,0.1,0.2,0.1,0.4
	c0.1,0,0.1,0.1,0.2,0.2c0,0.1,0.1,0.2,0.2,0.3c0,0,0.1,0.1,0.1,0.2c0.1,0.1,0.2,0.2,0.3,0.2c0,0.1,0.1,0.2,0.2,0.2
	c0.1,0.1,0.1,0.2,0.2,0.3c0.1,0,0.2,0.1,0.3,0.1c0,0.1,0,0.1,0,0.1l51.9,34.6c0.8,0.5,1.8,0.8,2.7,0.8s1.9-0.3,2.7-0.8l51.8-34.6
	c0.1,0,0.1,0,0.1-0.1c0.1,0,0.2-0.1,0.2-0.1c0.1-0.1,0.2-0.2,0.3-0.3c0.1,0,0.2-0.1,0.2-0.2c0.1,0,0.2-0.1,0.3-0.2
	c0-0.1,0.1-0.2,0.1-0.2c0.1-0.1,0.2-0.2,0.2-0.3c0.1-0.1,0.1-0.2,0.2-0.2c0-0.2,0.1-0.3,0.1-0.4c0.1,0,0.1-0.1,0.1-0.2
	c0.1-0.1,0.1-0.2,0.2-0.4c0,0,0-0.1,0.1-0.2c0-0.1,0-0.3,0-0.4s0.1-0.1,0.1-0.2c0-0.2,0-0.4,0-0.7v-34.5c0-0.2,0-0.4,0-0.7
	C171.1,262.8,171,262.7,171,262.6L171,262.6z"/>
</svg>
